<?xml version="1.0" standalone="no"?>
<!DOCTYPE svg PUBLIC "-//W3C//DTD SVG 20010904//EN"
 "http://www.w3.org/TR/2001/REC-SVG-20010904/DTD/svg10.dtd">
<svg version="1.0" xmlns="http://www.w3.org/2000/svg"
 width="250.000000pt" height="250.000000pt" viewBox="0 0 250.000000 250.000000"
 preserveAspectRatio="xMidYMid meet">

<g transform="translate(0.000000,250.000000) scale(0.100000,-0.100000)"
fill="#000000" stroke="none">
<path d="M860 2480 c-14 -11 -44 -29 -67 -41 -66 -32 -138 -103 -185 -182 -50
-83 -102 -196 -94 -204 3 -3 -1 -18 -9 -33 -18 -34 -17 -108 1 -137 8 -12 14
-40 14 -61 0 -23 6 -45 15 -52 8 -7 15 -20 15 -28 0 -9 7 -36 17 -60 16 -41
15 -43 -4 -57 -11 -8 -26 -34 -32 -58 -11 -39 -11 -49 9 -91 24 -54 40 -52 40
5 0 21 5 39 11 39 7 0 9 -26 4 -84 -6 -69 -4 -88 9 -109 11 -15 23 -23 34 -20
24 6 61 -47 70 -99 9 -53 31 -68 66 -45 31 21 33 40 6 74 -26 33 -25 48 2 67
28 20 38 12 38 -32 1 -20 7 -54 14 -74 7 -21 11 -48 9 -61 -3 -14 2 -29 12
-37 13 -11 18 -10 29 5 9 13 15 15 20 7 4 -7 5 -16 2 -21 -3 -4 -2 -22 3 -38
5 -16 5 -36 0 -45 -10 -19 10 -88 26 -88 18 0 38 -27 26 -34 -14 -9 -41 4 -41
20 0 8 -6 14 -14 14 -8 0 -16 7 -20 15 -9 24 -26 17 -26 -11 0 -14 11 -58 24
-97 36 -113 60 -251 48 -285 -11 -31 -95 3 -127 52 -18 27 -22 74 -11 121 11
47 -4 60 -45 39 -62 -31 -100 -67 -125 -115 -13 -27 -24 -57 -24 -66 0 -10 -7
-43 -15 -73 -35 -128 -38 -157 -16 -187 16 -23 20 -46 22 -123 1 -52 4 -116 7
-142 l5 -48 233 0 c196 0 234 2 234 14 0 8 9 17 19 21 11 3 23 15 26 26 10 30
48 44 82 30 22 -9 38 -8 72 2 52 15 80 55 86 122 2 23 13 57 24 76 25 40 27
77 6 85 -21 9 -18 38 6 60 12 10 25 29 30 41 10 27 65 63 94 63 11 0 45 9 74
20 30 11 58 17 62 14 15 -9 10 -41 -12 -91 -12 -27 -27 -61 -34 -78 -57 -135
-71 -165 -96 -203 -16 -24 -29 -51 -29 -61 0 -19 -66 -61 -98 -61 -11 0 -39
-18 -62 -40 l-42 -40 267 0 267 0 -6 23 c-4 12 -11 76 -17 142 -5 66 -14 136
-20 155 -6 19 -12 60 -15 90 -3 31 -14 67 -25 82 -10 15 -19 42 -19 61 0 18
-5 38 -12 45 -9 9 -8 17 2 37 11 20 11 28 1 38 -9 9 -14 9 -21 -2 -11 -18 -69
-19 -79 -2 -5 7 -24 16 -42 20 -52 11 -50 37 5 61 37 16 46 24 46 45 0 21 -9
29 -54 49 -35 16 -55 31 -59 46 -6 22 3 28 76 53 25 9 21 36 -8 49 -41 19 -23
33 51 39 38 4 84 10 103 14 l34 8 -6 -36 c-7 -45 7 -56 28 -23 25 38 29 89 11
124 -19 36 -36 42 -36 12 0 -19 -4 -20 -37 -13 -21 4 -57 7 -80 6 -44 -2 -55
11 -31 35 15 15 -14 49 -56 67 l-28 12 26 7 c29 7 33 18 11 36 -8 7 -15 18
-15 25 0 8 -9 34 -19 58 -18 42 -18 50 -5 99 19 73 18 75 -18 83 -18 4 -45 16
-60 27 -15 10 -52 23 -83 28 -90 15 -160 58 -128 79 6 3 13 16 17 28 8 25 -10
41 -27 24 -16 -16 -47 -14 -47 4 0 8 5 15 11 15 8 0 8 5 -1 15 -7 8 -16 13
-20 10 -4 -3 -11 7 -14 21 -9 35 18 77 44 69 13 -4 20 0 25 17 16 51 32 58
133 58 62 0 103 5 120 14 15 8 54 22 87 31 33 10 78 26 99 36 22 11 49 19 60
19 39 -1 122 -108 132 -171 12 -71 23 -19 23 112 1 92 -2 119 -14 129 -8 7
-15 17 -15 23 0 5 -13 32 -30 59 -18 28 -30 62 -30 82 0 35 -32 86 -55 86 -7
0 -27 13 -43 30 -16 16 -64 47 -106 70 l-77 40 -307 0 c-290 0 -308 -2 -332
-20z m95 -822 c10 -48 28 -98 36 -98 4 0 12 7 19 15 7 8 22 15 33 15 l21 0
-20 -20 c-11 -12 -35 -28 -54 -38 -24 -12 -38 -29 -48 -57 -13 -37 -13 -44 5
-85 11 -25 26 -61 33 -80 7 -19 19 -42 25 -50 7 -8 15 -33 18 -55 4 -22 9 -52
13 -67 18 -77 -104 15 -160 120 -27 52 -27 54 -23 200 5 156 17 199 62 221 30
15 33 13 40 -21z m-325 -58 c0 -5 -4 -10 -10 -10 -5 0 -10 5 -10 10 0 6 5 10
10 10 6 0 10 -4 10 -10z m74 -75 c3 -8 12 -15 21 -15 8 0 15 -8 15 -18 0 -11
9 -27 20 -37 11 -10 20 -27 20 -38 0 -17 -6 -13 -35 19 -19 21 -34 44 -35 51
0 7 -9 17 -20 23 -11 6 -18 15 -15 21 9 14 22 11 29 -6z m690 -108 c22 -22 22
-24 10 -111 -7 -48 -20 -99 -29 -112 -8 -13 -16 -36 -17 -51 -2 -31 -24 -63
-43 -63 -7 0 -29 -18 -50 -41 -20 -22 -39 -38 -43 -35 -3 4 -1 27 6 51 18 66
15 79 -20 123 -18 22 -40 49 -48 59 -8 10 -27 27 -42 36 -29 18 -37 50 -17 63
7 4 44 10 83 14 75 7 139 36 114 51 -14 9 -13 11 22 26 37 17 48 15 74 -10z
m-38 -562 c24 -59 15 -71 -26 -35 -17 14 -21 26 -16 45 9 35 24 31 42 -10z
m88 -104 c17 -19 17 -20 -8 -36 -30 -20 -56 -14 -56 13 0 20 18 42 35 42 7 0
20 -9 29 -19z m276 -591 c0 -5 -4 -10 -10 -10 -5 0 -10 5 -10 10 0 6 5 10 10
10 6 0 10 -4 10 -10z"/>
<path d="M1755 1642 c-99 -33 -105 -37 -105 -67 0 -15 -10 -31 -25 -41 -17
-11 -25 -25 -25 -45 0 -37 18 -47 36 -20 18 25 40 27 52 4 12 -21 42 -10 49
17 3 11 11 20 19 20 7 0 11 6 8 14 -8 21 20 58 60 80 35 19 51 40 40 57 -7 13
-18 11 -109 -19z"/>
<path d="M1693 983 c9 -2 23 -2 30 0 6 3 -1 5 -18 5 -16 0 -22 -2 -12 -5z"/>
<path d="M1750 915 c0 -29 27 -45 41 -24 14 22 6 44 -19 47 -18 3 -22 -1 -22
-23z"/>
<path d="M1732 820 c-16 -20 -19 -31 -11 -36 14 -8 49 30 49 52 0 21 -13 16
-38 -16z"/>
<path d="M1710 735 c0 -8 5 -15 10 -15 6 0 10 7 10 15 0 8 -4 15 -10 15 -5 0
-10 -7 -10 -15z"/>
<path d="M260 255 c-18 -22 32 -67 69 -63 33 4 37 41 4 46 -12 2 -27 10 -33
18 -16 18 -24 18 -40 -1z"/>
<path d="M140 61 c0 -43 10 -61 32 -61 14 0 18 5 15 18 -3 9 -8 29 -11 45 -9
37 -36 36 -36 -2z"/>
</g>
</svg>
